<svg xmlns="http://www.w3.org/2000/svg" xmlns:xlink="http://www.w3.org/1999/xlink" viewBox="0 0 1366.29394 662.02545"><defs><style>.cls-1{fill:url(#linear-gradient);}</style><linearGradient id="linear-gradient" x1="135.60759" y1="502.51098" x2="1292.55804" y2="101.41506" gradientUnits="userSpaceOnUse"><stop offset="0" stop-color="#cce0f4"/><stop offset="0.10026" stop-color="#c3daf0"/><stop offset="0.26708" stop-color="#a9c9e4"/><stop offset="0.47992" stop-color="#80aed1"/><stop offset="0.7304" stop-color="#4689b7"/><stop offset="1" stop-color="#005b97"/></linearGradient></defs><g id="Layer_2" data-name="Layer 2"><g id="Layer_1-2" data-name="Layer 1"><path class="cls-1" d="M163.56177,544.278c64.80829-17.45721,106.16766,1.86615,167.1438,22.977,100.43127,34.77094,204.7146-35.87591,302.92358,30.02515,9.4137,6.31683,18.84552,13.50824,29.53131,14.94806,13.36292,1.80048,26.57349-5.61133,39.424-11.62262,66.61029-31.15961,141.83313-26.45593,203.58624,12.73023,12.71662,8.06945,25.26746,17.68548,39.506,19.82312,41.44946,6.22271,90.11578-28.46625,133.87652-29.03742a212.80557,212.80557,0,0,1,121.8606,36.78735c10.95276,7.49488,21.98169,16.23145,34.54443,17.10608,37.66516,2.62244,79.97522-30.72943,119.97327-32.36914q5.03631-.20644,10.06848-.168V384s21-236-292-236S683,0,683,0H0V662.02545C43.55585,602.28876,102.02576,560.85376,163.56177,544.278Z"/></g></g></svg>